<?xml version="1.0" encoding="UTF-8" standalone="no"?>
<!-- Created with Inkscape (http://www.inkscape.org/) -->

<svg
   width="291.05658mm"
   height="142.34804mm"
   viewBox="0 0 291.05658 142.34804"
   version="1.1"
   id="svg1"
   xml:space="preserve"
   xmlns:inkscape="http://www.inkscape.org/namespaces/inkscape"
   xmlns:sodipodi="http://sodipodi.sourceforge.net/DTD/sodipodi-0.dtd"
   xmlns="http://www.w3.org/2000/svg"
   xmlns:svg="http://www.w3.org/2000/svg"><sodipodi:namedview
     id="namedview1"
     pagecolor="#505050"
     bordercolor="#eeeeee"
     borderopacity="1"
     inkscape:showpageshadow="0"
     inkscape:pageopacity="0"
     inkscape:pagecheckerboard="0"
     inkscape:deskcolor="#d1d1d1"
     inkscape:document-units="mm" /><defs
     id="defs1" /><g
     inkscape:label="Camada 1"
     inkscape:groupmode="layer"
     id="layer1"
     transform="translate(43.074647,-30.025903)"><path
       style="fill:#fefefe"
       d="M -43.074627,127.79139 V 83.208453 h 18.612117 c 17.6950976,0 18.6336916,0.0238 19.0499996,0.48386 0.401693,0.44386 0.437882,2.8165 0.437882,28.709027 v 28.22518 l 19.1106994,-0.0679 19.110699,-0.0679 10.888769,-19.71146 10.888768,-19.71146 -0.829156,-1.466267 c -0.456036,-0.80645 -5.344955,-9.34918 -10.864264,-18.98386 L 33.29578,63.100123 H -4.8894234 -43.074627 v -16.53711 -16.53711 l 53.234537,0.0668 53.234536,0.0668 18.4014,31.87694 18.401404,31.87694 0.0723,-4.87542 c 0.0603,-4.06785 0.14382,-4.95444 0.50403,-5.35246 0.41228,-0.45557 2.19641,-0.47704 39.65277,-0.47704 h 39.22105 l 8.76567,-4.28191 c 4.82111,-2.35505 8.73291,-4.38015 8.69289,-4.50022 -0.04,-0.12007 -3.94195,-2.71649 -8.67096,-5.76982 l -8.59819,-5.55152 -39.31576,-0.002 c -37.75075,-0.002 -39.33319,-0.0217 -39.75364,-0.48629 -0.39733,-0.43904 -0.43789,-1.97063 -0.43789,-16.53645 v -16.05261 l 54.70261,0.0121 54.7026,0.0121 19.05,20.79265 19.05,20.79264 0.0736,3.37415 0.0736,3.37414 -20.405,19.64117 -20.405,19.641177 -5.79621,-0.10796 c -3.18792,-0.0594 -5.79622,-0.0892 -5.79622,-0.0663 0,0.0229 11.78719,11.44341 26.19375,25.37889 l 26.19375,25.33724 v 2.0819 2.0819 l -21.89427,-0.005 -21.89427,-0.005 -26.92875,-27.51207 -26.92875,-27.51208 h -5.94573 -5.94573 v 27.51667 27.51667 h -19.04893 -19.04894 l -0.0672,-31.94228 -0.0672,-31.94229 -18.401404,31.87614 -18.4014,31.87614 -53.234536,0.0668 -53.234537,0.0668 z m 119.507073,6.99899 19.36229,-33.58943 -19.36229,-33.590787 -19.362285,-33.59079 -48.0880194,-0.0117 -48.0880186,-0.0117 v 11.37708 11.37709 H -0.63252343 37.84083 l 0.641601,0.7625 c 0.352881,0.41937 5.899871,9.94588 12.326645,21.17001 l 11.685043,20.4075 -0.0014,1.914887 -0.0014,1.91489 -11.86272,21.4962 c -6.524496,11.82291 -12.078709,21.73486 -12.342695,22.02656 -0.473676,0.52341 -0.797739,0.53037 -24.693654,0.53037 -22.1597884,0 -24.254721,-0.0371 -24.697533,-0.43788 -0.462999,-0.41901 -0.483854,-1.65637 -0.483854,-28.7073 V 89.558453 h -13.758408 -13.758332 v 39.289317 39.28932 l 25.730728,0.0688 c 14.15190057,0.0378 35.791509,0.0924 48.088019,0.12136 l 22.357291,0.0526 z m 55.647094,5.39047 c 0,-25.89091 0.0362,-28.26343 0.43788,-28.70729 0.41053,-0.45363 1.10942,-0.48386 11.18607,-0.48386 h 10.74818 l 28.03842,28.68541 28.03841,28.68541 13.49161,0.0219 13.49162,0.0219 -1.98224,-1.95577 c -1.09023,-1.07567 -13.47177,-13.06074 -27.51453,-26.63348 l -25.53229,-24.67771 -0.0789,-1.70811 c -0.13008,-2.81458 -0.90483,-2.63646 10.86229,-2.4972 l 10.11874,0.11976 18.65312,-17.947077 c 10.25922,-9.8709 18.65313,-18.02488 18.65313,-18.11995 0,-0.0951 -8.42663,-9.35645 -18.72583,-20.58083 l -18.72583,-20.40797 h -48.14761 -48.1476 v 4.19034 c 0,2.30469 -0.0787,7.42438 -0.17481,11.37709 l -0.1748,7.18674 h 38.57991 38.57992 l 12.07556,7.79603 c 6.64156,4.28782 12.33832,8.07573 12.65947,8.41758 0.46961,0.49987 0.58391,0.93555 0.58391,2.22573 0,1.05455 -0.1273,1.70985 -0.37154,1.91255 -0.20434,0.16959 -5.94117,3.04167 -12.7485,6.38239 l -12.37697,6.07405 h -38.44837 -38.44837 v 39.422917 39.42292 h 12.7 12.7 z"
       id="path1" /></g></svg>
